<svg id="titleSvg" width="819" height="91" viewBox="0 0 819 91" fill="none" xmlns="http://www.w3.org/2000/svg">
<mask id="path-1-outside-1_8_3" maskUnits="userSpaceOnUse" x="0.743988" y="0.503998" width="818" height="90" fill="black">
<rect fill="white" x="0.743988" y="0.503998" width="818" height="90"/>
<path d="M38.608 89.152C33.296 89.152 28.368 88.288 23.824 86.56C19.344 84.832 15.44 82.4 12.112 79.264C8.84799 76.128 6.28799 72.448 4.43199 68.224C2.63999 64 1.74399 59.392 1.74399 54.4C1.74399 49.408 2.63999 44.8 4.43199 40.576C6.28799 36.352 8.87999 32.672 12.208 29.536C15.536 26.4 19.44 23.968 23.92 22.24C28.4 20.512 33.264 19.648 38.512 19.648C43.824 19.648 48.688 20.512 53.104 22.24C57.584 23.968 61.456 26.4 64.72 29.536C68.048 32.672 70.64 36.352 72.496 40.576C74.352 44.736 75.28 49.344 75.28 54.4C75.28 59.392 74.352 64.032 72.496 68.32C70.64 72.544 68.048 76.224 64.72 79.36C61.456 82.432 57.584 84.832 53.104 86.56C48.688 88.288 43.856 89.152 38.608 89.152ZM38.512 75.904C41.52 75.904 44.272 75.392 46.768 74.368C49.328 73.344 51.568 71.872 53.488 69.952C55.408 68.032 56.88 65.76 57.904 63.136C58.992 60.512 59.536 57.6 59.536 54.4C59.536 51.2 58.992 48.288 57.904 45.664C56.88 43.04 55.408 40.768 53.488 38.848C51.632 36.928 49.424 35.456 46.864 34.432C44.304 33.408 41.52 32.896 38.512 32.896C35.504 32.896 32.72 33.408 30.16 34.432C27.664 35.456 25.456 36.928 23.536 38.848C21.616 40.768 20.112 43.04 19.024 45.664C18 48.288 17.488 51.2 17.488 54.4C17.488 57.536 18 60.448 19.024 63.136C20.112 65.76 21.584 68.032 23.44 69.952C25.36 71.872 27.6 73.344 30.16 74.368C32.72 75.392 35.504 75.904 38.512 75.904ZM29.776 15.328L42.736 1.504H58.864L41.488 15.328H29.776Z"/>
<path d="M103.288 88.768C98.872 88.768 94.616 88.256 90.52 87.232C86.488 86.144 83.288 84.8 80.92 83.2L85.912 72.448C88.28 73.92 91.064 75.136 94.264 76.096C97.528 76.992 100.728 77.44 103.864 77.44C107.32 77.44 109.752 77.024 111.16 76.192C112.632 75.36 113.368 74.208 113.368 72.736C113.368 71.52 112.792 70.624 111.64 70.048C110.552 69.408 109.08 68.928 107.224 68.608C105.368 68.288 103.32 67.968 101.08 67.648C98.904 67.328 96.696 66.912 94.456 66.4C92.216 65.824 90.168 64.992 88.312 63.904C86.456 62.816 84.952 61.344 83.8 59.488C82.712 57.632 82.168 55.232 82.168 52.288C82.168 49.024 83.096 46.144 84.952 43.648C86.872 41.152 89.624 39.2 93.208 37.792C96.792 36.32 101.08 35.584 106.072 35.584C109.592 35.584 113.176 35.968 116.824 36.736C120.472 37.504 123.512 38.624 125.944 40.096L120.952 50.752C118.456 49.28 115.928 48.288 113.368 47.776C110.872 47.2 108.44 46.912 106.072 46.912C102.744 46.912 100.312 47.36 98.776 48.256C97.24 49.152 96.472 50.304 96.472 51.712C96.472 52.992 97.016 53.952 98.104 54.592C99.256 55.232 100.76 55.744 102.616 56.128C104.472 56.512 106.488 56.864 108.664 57.184C110.904 57.44 113.144 57.856 115.384 58.432C117.624 59.008 119.64 59.84 121.432 60.928C123.288 61.952 124.792 63.392 125.944 65.248C127.096 67.04 127.672 69.408 127.672 72.352C127.672 75.552 126.712 78.4 124.792 80.896C122.872 83.328 120.088 85.248 116.44 86.656C112.856 88.064 108.472 88.768 103.288 88.768Z"/>
<path d="M161.872 88.768C156.304 88.768 151.344 87.648 146.992 85.408C142.64 83.104 139.216 79.936 136.72 75.904C134.288 71.872 133.072 67.296 133.072 62.176C133.072 56.992 134.288 52.416 136.72 48.448C139.216 44.416 142.64 41.28 146.992 39.04C151.344 36.736 156.304 35.584 161.872 35.584C167.312 35.584 172.048 36.736 176.08 39.04C180.112 41.28 183.088 44.512 185.008 48.736L173.392 54.976C172.048 52.544 170.352 50.752 168.304 49.6C166.32 48.448 164.144 47.872 161.776 47.872C159.216 47.872 156.912 48.448 154.864 49.6C152.816 50.752 151.184 52.384 149.968 54.496C148.816 56.608 148.24 59.168 148.24 62.176C148.24 65.184 148.816 67.744 149.968 69.856C151.184 71.968 152.816 73.6 154.864 74.752C156.912 75.904 159.216 76.48 161.776 76.48C164.144 76.48 166.32 75.936 168.304 74.848C170.352 73.696 172.048 71.872 173.392 69.376L185.008 75.712C183.088 79.872 180.112 83.104 176.08 85.408C172.048 87.648 167.312 88.768 161.872 88.768Z"/>
<path d="M225.311 88V77.92L224.351 75.712V57.664C224.351 54.464 223.359 51.968 221.375 50.176C219.455 48.384 216.479 47.488 212.447 47.488C209.695 47.488 206.975 47.936 204.287 48.832C201.663 49.664 199.423 50.816 197.567 52.288L192.191 41.824C195.007 39.84 198.399 38.304 202.367 37.216C206.335 36.128 210.367 35.584 214.463 35.584C222.335 35.584 228.447 37.44 232.799 41.152C237.151 44.864 239.327 50.656 239.327 58.528V88H225.311ZM209.567 88.768C205.535 88.768 202.079 88.096 199.199 86.752C196.319 85.344 194.111 83.456 192.575 81.088C191.039 78.72 190.271 76.064 190.271 73.12C190.271 70.048 191.007 67.36 192.479 65.056C194.015 62.752 196.415 60.96 199.679 59.68C202.943 58.336 207.199 57.664 212.447 57.664H226.175V66.4H214.079C210.559 66.4 208.127 66.976 206.783 68.128C205.503 69.28 204.863 70.72 204.863 72.448C204.863 74.368 205.599 75.904 207.071 77.056C208.607 78.144 210.687 78.688 213.311 78.688C215.807 78.688 218.047 78.112 220.031 76.96C222.015 75.744 223.455 73.984 224.351 71.68L226.655 78.592C225.567 81.92 223.583 84.448 220.703 86.176C217.823 87.904 214.111 88.768 209.567 88.768Z"/>
<path d="M252.881 88V36.352H267.185V50.944L265.169 46.72C266.705 43.072 269.169 40.32 272.561 38.464C275.953 36.544 280.081 35.584 284.945 35.584V49.408C284.305 49.344 283.729 49.312 283.217 49.312C282.705 49.248 282.161 49.216 281.585 49.216C277.489 49.216 274.161 50.4 271.601 52.768C269.105 55.072 267.857 58.688 267.857 63.616V88H252.881Z"/>
<path d="M313.636 88L343.588 20.8H358.948L388.996 88H372.676L348.1 28.672H354.244L329.572 88H313.636ZM328.612 73.6L332.74 61.792H367.3L371.524 73.6H328.612Z"/>
<path d="M403.67 88.768C401.11 88.768 398.902 87.904 397.046 86.176C395.254 84.384 394.358 82.112 394.358 79.36C394.358 76.608 395.254 74.4 397.046 72.736C398.902 71.008 401.11 70.144 403.67 70.144C406.294 70.144 408.502 71.008 410.294 72.736C412.086 74.4 412.982 76.608 412.982 79.36C412.982 82.112 412.086 84.384 410.294 86.176C408.502 87.904 406.294 88.768 403.67 88.768Z"/>
<path d="M451.374 88V20.8H464.238L492.846 68.224H486.03L514.158 20.8H526.926L527.118 88H512.526L512.43 43.168H515.118L492.654 80.896H485.646L462.702 43.168H465.966V88H451.374Z"/>
<path d="M566.582 88.768C561.078 88.768 556.182 87.616 551.894 85.312C547.67 83.008 544.31 79.872 541.814 75.904C539.382 71.872 538.166 67.296 538.166 62.176C538.166 56.992 539.382 52.416 541.814 48.448C544.31 44.416 547.67 41.28 551.894 39.04C556.182 36.736 561.078 35.584 566.582 35.584C572.022 35.584 576.886 36.736 581.174 39.04C585.462 41.28 588.822 44.384 591.254 48.352C593.686 52.32 594.902 56.928 594.902 62.176C594.902 67.296 593.686 71.872 591.254 75.904C588.822 79.872 585.462 83.008 581.174 85.312C576.886 87.616 572.022 88.768 566.582 88.768ZM566.582 76.48C569.078 76.48 571.318 75.904 573.302 74.752C575.286 73.6 576.854 71.968 578.006 69.856C579.158 67.68 579.734 65.12 579.734 62.176C579.734 59.168 579.158 56.608 578.006 54.496C576.854 52.384 575.286 50.752 573.302 49.6C571.318 48.448 569.078 47.872 566.582 47.872C564.086 47.872 561.846 48.448 559.862 49.6C557.878 50.752 556.278 52.384 555.062 54.496C553.91 56.608 553.334 59.168 553.334 62.176C553.334 65.12 553.91 67.68 555.062 69.856C556.278 71.968 557.878 73.6 559.862 74.752C561.846 75.904 564.086 76.48 566.582 76.48Z"/>
<path d="M636.304 35.584C640.4 35.584 644.048 36.416 647.248 38.08C650.512 39.68 653.072 42.176 654.928 45.568C656.784 48.896 657.712 53.184 657.712 58.432V88H642.736V60.736C642.736 56.576 641.808 53.504 639.952 51.52C638.16 49.536 635.6 48.544 632.272 48.544C629.904 48.544 627.76 49.056 625.84 50.08C623.984 51.04 622.512 52.544 621.424 54.592C620.4 56.64 619.888 59.264 619.888 62.464V88H604.912V36.352H619.216V50.656L616.528 46.336C618.384 42.88 621.04 40.224 624.496 38.368C627.952 36.512 631.888 35.584 636.304 35.584Z"/>
<path d="M692.407 88.768C686.327 88.768 681.591 87.232 678.199 84.16C674.807 81.024 673.111 76.384 673.111 70.24V24.928H688.087V70.048C688.087 72.224 688.663 73.92 689.815 75.136C690.967 76.288 692.535 76.864 694.519 76.864C696.887 76.864 698.903 76.224 700.567 74.944L704.599 85.504C703.063 86.592 701.207 87.424 699.031 88C696.919 88.512 694.711 88.768 692.407 88.768ZM665.143 49.024V37.504H700.951V49.024H665.143Z"/>
<path d="M713.006 88V36.352H727.982V88H713.006ZM720.494 29.152C717.742 29.152 715.502 28.352 713.774 26.752C712.046 25.152 711.182 23.168 711.182 20.8C711.182 18.432 712.046 16.448 713.774 14.848C715.502 13.248 717.742 12.448 720.494 12.448C723.246 12.448 725.486 13.216 727.214 14.752C728.942 16.224 729.806 18.144 729.806 20.512C729.806 23.008 728.942 25.088 727.214 26.752C725.55 28.352 723.31 29.152 720.494 29.152Z"/>
<path d="M767.513 88.768C761.625 88.768 756.441 87.616 751.961 85.312C747.545 83.008 744.121 79.872 741.689 75.904C739.257 71.872 738.041 67.296 738.041 62.176C738.041 56.992 739.225 52.416 741.593 48.448C744.025 44.416 747.321 41.28 751.481 39.04C755.641 36.736 760.345 35.584 765.593 35.584C770.649 35.584 775.193 36.672 779.225 38.848C783.321 40.96 786.553 44.032 788.921 48.064C791.289 52.032 792.473 56.8 792.473 62.368C792.473 62.944 792.441 63.616 792.377 64.384C792.313 65.088 792.249 65.76 792.185 66.4H750.233V57.664H784.313L778.553 60.256C778.553 57.568 778.009 55.232 776.921 53.248C775.833 51.264 774.329 49.728 772.409 48.64C770.489 47.488 768.249 46.912 765.689 46.912C763.129 46.912 760.857 47.488 758.873 48.64C756.953 49.728 755.449 51.296 754.361 53.344C753.273 55.328 752.729 57.696 752.729 60.448V62.752C752.729 65.568 753.337 68.064 754.553 70.24C755.833 72.352 757.593 73.984 759.833 75.136C762.137 76.224 764.825 76.768 767.897 76.768C770.649 76.768 773.049 76.352 775.097 75.52C777.209 74.688 779.129 73.44 780.857 71.776L788.825 80.416C786.457 83.104 783.481 85.184 779.897 86.656C776.313 88.064 772.185 88.768 767.513 88.768Z"/>
<path d="M802.443 88V16.768H817.419V88H802.443Z"/>
</mask>
<path d="M38.608 89.152C33.296 89.152 28.368 88.288 23.824 86.56C19.344 84.832 15.44 82.4 12.112 79.264C8.84799 76.128 6.28799 72.448 4.43199 68.224C2.63999 64 1.74399 59.392 1.74399 54.4C1.74399 49.408 2.63999 44.8 4.43199 40.576C6.28799 36.352 8.87999 32.672 12.208 29.536C15.536 26.4 19.44 23.968 23.92 22.24C28.4 20.512 33.264 19.648 38.512 19.648C43.824 19.648 48.688 20.512 53.104 22.24C57.584 23.968 61.456 26.4 64.72 29.536C68.048 32.672 70.64 36.352 72.496 40.576C74.352 44.736 75.28 49.344 75.28 54.4C75.28 59.392 74.352 64.032 72.496 68.32C70.64 72.544 68.048 76.224 64.72 79.36C61.456 82.432 57.584 84.832 53.104 86.56C48.688 88.288 43.856 89.152 38.608 89.152ZM38.512 75.904C41.52 75.904 44.272 75.392 46.768 74.368C49.328 73.344 51.568 71.872 53.488 69.952C55.408 68.032 56.88 65.76 57.904 63.136C58.992 60.512 59.536 57.6 59.536 54.4C59.536 51.2 58.992 48.288 57.904 45.664C56.88 43.04 55.408 40.768 53.488 38.848C51.632 36.928 49.424 35.456 46.864 34.432C44.304 33.408 41.52 32.896 38.512 32.896C35.504 32.896 32.72 33.408 30.16 34.432C27.664 35.456 25.456 36.928 23.536 38.848C21.616 40.768 20.112 43.04 19.024 45.664C18 48.288 17.488 51.2 17.488 54.4C17.488 57.536 18 60.448 19.024 63.136C20.112 65.76 21.584 68.032 23.44 69.952C25.36 71.872 27.6 73.344 30.16 74.368C32.72 75.392 35.504 75.904 38.512 75.904ZM29.776 15.328L42.736 1.504H58.864L41.488 15.328H29.776Z" stroke="white" stroke-width="2" mask="url(#path-1-outside-1_8_3)"/>
<path d="M103.288 88.768C98.872 88.768 94.616 88.256 90.52 87.232C86.488 86.144 83.288 84.8 80.92 83.2L85.912 72.448C88.28 73.92 91.064 75.136 94.264 76.096C97.528 76.992 100.728 77.44 103.864 77.44C107.32 77.44 109.752 77.024 111.16 76.192C112.632 75.36 113.368 74.208 113.368 72.736C113.368 71.52 112.792 70.624 111.64 70.048C110.552 69.408 109.08 68.928 107.224 68.608C105.368 68.288 103.32 67.968 101.08 67.648C98.904 67.328 96.696 66.912 94.456 66.4C92.216 65.824 90.168 64.992 88.312 63.904C86.456 62.816 84.952 61.344 83.8 59.488C82.712 57.632 82.168 55.232 82.168 52.288C82.168 49.024 83.096 46.144 84.952 43.648C86.872 41.152 89.624 39.2 93.208 37.792C96.792 36.32 101.08 35.584 106.072 35.584C109.592 35.584 113.176 35.968 116.824 36.736C120.472 37.504 123.512 38.624 125.944 40.096L120.952 50.752C118.456 49.28 115.928 48.288 113.368 47.776C110.872 47.2 108.44 46.912 106.072 46.912C102.744 46.912 100.312 47.36 98.776 48.256C97.24 49.152 96.472 50.304 96.472 51.712C96.472 52.992 97.016 53.952 98.104 54.592C99.256 55.232 100.76 55.744 102.616 56.128C104.472 56.512 106.488 56.864 108.664 57.184C110.904 57.44 113.144 57.856 115.384 58.432C117.624 59.008 119.64 59.84 121.432 60.928C123.288 61.952 124.792 63.392 125.944 65.248C127.096 67.04 127.672 69.408 127.672 72.352C127.672 75.552 126.712 78.4 124.792 80.896C122.872 83.328 120.088 85.248 116.44 86.656C112.856 88.064 108.472 88.768 103.288 88.768Z" stroke="white" stroke-width="2" mask="url(#path-1-outside-1_8_3)"/>
<path d="M161.872 88.768C156.304 88.768 151.344 87.648 146.992 85.408C142.64 83.104 139.216 79.936 136.72 75.904C134.288 71.872 133.072 67.296 133.072 62.176C133.072 56.992 134.288 52.416 136.72 48.448C139.216 44.416 142.64 41.28 146.992 39.04C151.344 36.736 156.304 35.584 161.872 35.584C167.312 35.584 172.048 36.736 176.08 39.04C180.112 41.28 183.088 44.512 185.008 48.736L173.392 54.976C172.048 52.544 170.352 50.752 168.304 49.6C166.32 48.448 164.144 47.872 161.776 47.872C159.216 47.872 156.912 48.448 154.864 49.6C152.816 50.752 151.184 52.384 149.968 54.496C148.816 56.608 148.24 59.168 148.24 62.176C148.24 65.184 148.816 67.744 149.968 69.856C151.184 71.968 152.816 73.6 154.864 74.752C156.912 75.904 159.216 76.48 161.776 76.48C164.144 76.48 166.32 75.936 168.304 74.848C170.352 73.696 172.048 71.872 173.392 69.376L185.008 75.712C183.088 79.872 180.112 83.104 176.08 85.408C172.048 87.648 167.312 88.768 161.872 88.768Z" stroke="white" stroke-width="2" mask="url(#path-1-outside-1_8_3)"/>
<path d="M225.311 88V77.92L224.351 75.712V57.664C224.351 54.464 223.359 51.968 221.375 50.176C219.455 48.384 216.479 47.488 212.447 47.488C209.695 47.488 206.975 47.936 204.287 48.832C201.663 49.664 199.423 50.816 197.567 52.288L192.191 41.824C195.007 39.84 198.399 38.304 202.367 37.216C206.335 36.128 210.367 35.584 214.463 35.584C222.335 35.584 228.447 37.44 232.799 41.152C237.151 44.864 239.327 50.656 239.327 58.528V88H225.311ZM209.567 88.768C205.535 88.768 202.079 88.096 199.199 86.752C196.319 85.344 194.111 83.456 192.575 81.088C191.039 78.72 190.271 76.064 190.271 73.12C190.271 70.048 191.007 67.36 192.479 65.056C194.015 62.752 196.415 60.96 199.679 59.68C202.943 58.336 207.199 57.664 212.447 57.664H226.175V66.4H214.079C210.559 66.4 208.127 66.976 206.783 68.128C205.503 69.28 204.863 70.72 204.863 72.448C204.863 74.368 205.599 75.904 207.071 77.056C208.607 78.144 210.687 78.688 213.311 78.688C215.807 78.688 218.047 78.112 220.031 76.96C222.015 75.744 223.455 73.984 224.351 71.68L226.655 78.592C225.567 81.92 223.583 84.448 220.703 86.176C217.823 87.904 214.111 88.768 209.567 88.768Z" stroke="white" stroke-width="2" mask="url(#path-1-outside-1_8_3)"/>
<path d="M252.881 88V36.352H267.185V50.944L265.169 46.72C266.705 43.072 269.169 40.32 272.561 38.464C275.953 36.544 280.081 35.584 284.945 35.584V49.408C284.305 49.344 283.729 49.312 283.217 49.312C282.705 49.248 282.161 49.216 281.585 49.216C277.489 49.216 274.161 50.4 271.601 52.768C269.105 55.072 267.857 58.688 267.857 63.616V88H252.881Z" stroke="white" stroke-width="2" mask="url(#path-1-outside-1_8_3)"/>
<path d="M313.636 88L343.588 20.8H358.948L388.996 88H372.676L348.1 28.672H354.244L329.572 88H313.636ZM328.612 73.6L332.74 61.792H367.3L371.524 73.6H328.612Z" stroke="white" stroke-width="2" mask="url(#path-1-outside-1_8_3)"/>
<path d="M403.67 88.768C401.11 88.768 398.902 87.904 397.046 86.176C395.254 84.384 394.358 82.112 394.358 79.36C394.358 76.608 395.254 74.4 397.046 72.736C398.902 71.008 401.11 70.144 403.67 70.144C406.294 70.144 408.502 71.008 410.294 72.736C412.086 74.4 412.982 76.608 412.982 79.36C412.982 82.112 412.086 84.384 410.294 86.176C408.502 87.904 406.294 88.768 403.67 88.768Z" stroke="white" stroke-width="2" mask="url(#path-1-outside-1_8_3)"/>
<path d="M451.374 88V20.8H464.238L492.846 68.224H486.03L514.158 20.8H526.926L527.118 88H512.526L512.43 43.168H515.118L492.654 80.896H485.646L462.702 43.168H465.966V88H451.374Z" stroke="white" stroke-width="2" mask="url(#path-1-outside-1_8_3)"/>
<path d="M566.582 88.768C561.078 88.768 556.182 87.616 551.894 85.312C547.67 83.008 544.31 79.872 541.814 75.904C539.382 71.872 538.166 67.296 538.166 62.176C538.166 56.992 539.382 52.416 541.814 48.448C544.31 44.416 547.67 41.28 551.894 39.04C556.182 36.736 561.078 35.584 566.582 35.584C572.022 35.584 576.886 36.736 581.174 39.04C585.462 41.28 588.822 44.384 591.254 48.352C593.686 52.32 594.902 56.928 594.902 62.176C594.902 67.296 593.686 71.872 591.254 75.904C588.822 79.872 585.462 83.008 581.174 85.312C576.886 87.616 572.022 88.768 566.582 88.768ZM566.582 76.48C569.078 76.48 571.318 75.904 573.302 74.752C575.286 73.6 576.854 71.968 578.006 69.856C579.158 67.68 579.734 65.12 579.734 62.176C579.734 59.168 579.158 56.608 578.006 54.496C576.854 52.384 575.286 50.752 573.302 49.6C571.318 48.448 569.078 47.872 566.582 47.872C564.086 47.872 561.846 48.448 559.862 49.6C557.878 50.752 556.278 52.384 555.062 54.496C553.91 56.608 553.334 59.168 553.334 62.176C553.334 65.12 553.91 67.68 555.062 69.856C556.278 71.968 557.878 73.6 559.862 74.752C561.846 75.904 564.086 76.48 566.582 76.48Z" stroke="white" stroke-width="2" mask="url(#path-1-outside-1_8_3)"/>
<path d="M636.304 35.584C640.4 35.584 644.048 36.416 647.248 38.08C650.512 39.68 653.072 42.176 654.928 45.568C656.784 48.896 657.712 53.184 657.712 58.432V88H642.736V60.736C642.736 56.576 641.808 53.504 639.952 51.52C638.16 49.536 635.6 48.544 632.272 48.544C629.904 48.544 627.76 49.056 625.84 50.08C623.984 51.04 622.512 52.544 621.424 54.592C620.4 56.64 619.888 59.264 619.888 62.464V88H604.912V36.352H619.216V50.656L616.528 46.336C618.384 42.88 621.04 40.224 624.496 38.368C627.952 36.512 631.888 35.584 636.304 35.584Z" stroke="white" stroke-width="2" mask="url(#path-1-outside-1_8_3)"/>
<path d="M692.407 88.768C686.327 88.768 681.591 87.232 678.199 84.16C674.807 81.024 673.111 76.384 673.111 70.24V24.928H688.087V70.048C688.087 72.224 688.663 73.92 689.815 75.136C690.967 76.288 692.535 76.864 694.519 76.864C696.887 76.864 698.903 76.224 700.567 74.944L704.599 85.504C703.063 86.592 701.207 87.424 699.031 88C696.919 88.512 694.711 88.768 692.407 88.768ZM665.143 49.024V37.504H700.951V49.024H665.143Z" stroke="white" stroke-width="2" mask="url(#path-1-outside-1_8_3)"/>
<path d="M713.006 88V36.352H727.982V88H713.006ZM720.494 29.152C717.742 29.152 715.502 28.352 713.774 26.752C712.046 25.152 711.182 23.168 711.182 20.8C711.182 18.432 712.046 16.448 713.774 14.848C715.502 13.248 717.742 12.448 720.494 12.448C723.246 12.448 725.486 13.216 727.214 14.752C728.942 16.224 729.806 18.144 729.806 20.512C729.806 23.008 728.942 25.088 727.214 26.752C725.55 28.352 723.31 29.152 720.494 29.152Z" stroke="white" stroke-width="2" mask="url(#path-1-outside-1_8_3)"/>
<path d="M767.513 88.768C761.625 88.768 756.441 87.616 751.961 85.312C747.545 83.008 744.121 79.872 741.689 75.904C739.257 71.872 738.041 67.296 738.041 62.176C738.041 56.992 739.225 52.416 741.593 48.448C744.025 44.416 747.321 41.28 751.481 39.04C755.641 36.736 760.345 35.584 765.593 35.584C770.649 35.584 775.193 36.672 779.225 38.848C783.321 40.96 786.553 44.032 788.921 48.064C791.289 52.032 792.473 56.8 792.473 62.368C792.473 62.944 792.441 63.616 792.377 64.384C792.313 65.088 792.249 65.76 792.185 66.4H750.233V57.664H784.313L778.553 60.256C778.553 57.568 778.009 55.232 776.921 53.248C775.833 51.264 774.329 49.728 772.409 48.64C770.489 47.488 768.249 46.912 765.689 46.912C763.129 46.912 760.857 47.488 758.873 48.64C756.953 49.728 755.449 51.296 754.361 53.344C753.273 55.328 752.729 57.696 752.729 60.448V62.752C752.729 65.568 753.337 68.064 754.553 70.24C755.833 72.352 757.593 73.984 759.833 75.136C762.137 76.224 764.825 76.768 767.897 76.768C770.649 76.768 773.049 76.352 775.097 75.52C777.209 74.688 779.129 73.44 780.857 71.776L788.825 80.416C786.457 83.104 783.481 85.184 779.897 86.656C776.313 88.064 772.185 88.768 767.513 88.768Z" stroke="white" stroke-width="2" mask="url(#path-1-outside-1_8_3)"/>
<path d="M802.443 88V16.768H817.419V88H802.443Z" stroke="white" stroke-width="2" mask="url(#path-1-outside-1_8_3)"/>
</svg>
