<svg viewBox="0 0 15 15" fill="none" xmlns="http://www.w3.org/2000/svg" width="20" height="20"><path fill-rule="evenodd" clip-rule="evenodd" d="M0 1.5A1.5 1.5 0 011.5 0h12A1.5 1.5 0 0115 1.5v12a1.5 1.5 0 01-1.5 1.5h-12A1.5 1.5 0 010 13.5v-12zM7.5 1.5C4.185 1.5 1.5 4.185 1.5 7.5c0 2.655 1.7175 4.8975 4.1025 5.6925.3.0525.4125-.1275.4125-.285 0-.1425-.0075-.615-.0075-1.1175-1.5075.2775-1.8975-.3675-2.0175-.705-.0675-.1725-.36-.705-.615-.8475-.21-.1125-.51-.39-.0075-.3975.4725-.0075.81.435.9225.615.54.9075 1.4025.6525 1.7475.495.0525-.39.21-.6525.3825-.8025-1.335-.15-2.73-.6675-2.73-2.9625 0-.6525.2325-1.1925.615-1.6125-.06-.15-.27-.765.06-1.59 0 0 .5025-.1575 1.65.615.48-.135.99-.2025 1.5-.2025.51 0 1.02.0675 1.5.2025 1.1475-.78 1.65-.615 1.65-.615.33.825.12 1.44.06 1.59.3825.42.615.9525.615 1.6125 0 2.3025-1.4025 2.8125-2.7375 2.9625.2175.1875.405.5475.405 1.11 0 .8025-.0075 1.4475-.0075 1.65 0 .1575.1125.345.4125.285A6.01 6.01 0 0013.5 7.5c0-3.315-2.685-6-6-6z" fill="white"></path></svg>
