<svg xmlns="http://www.w3.org/2000/svg" viewBox="0 0 24 24" fill="white">
  <path d="M11.979 0C5.678 0 .511 4.86.022 11.037l6.432 2.658c.545-.371 1.203-.59 1.912-.59.063 0 .125.004.188.006l2.861-4.142V8.91c0-2.495 2.028-4.524 4.524-4.524 2.494 0 4.524 2.029 4.524 4.524s-2.03 4.525-4.524 4.525h-.105l-4.076 2.911c0 .052.004.105.004.159 0 1.875-1.515 3.396-3.39 3.396-1.635 0-3.016-1.173-3.331-2.727L.436 15.27C1.62 20.16 6.363 24 11.979 24c6.624 0 11.979-5.354 11.979-11.979C23.958 5.397 18.603.021 11.979 0zM7.54 18.21l-1.473-.61c.262.543.714.999 1.314 1.25 1.297.539 2.793-.158 3.332-1.45.263-.632.263-1.336-.005-1.968-.267-.632-.714-1.108-1.345-1.371-.652-.262-1.344-.157-1.895.21l1.514.299c.954.398 1.404 1.508 1.009 2.462-.394.955-1.506 1.404-2.451 1.178z"/>
</svg>